# xmcd
#
# Track frame offsets: 
#        300
#        18423
#        40828
#        64348
#        78545
#        99608
#        114300
#        138873
#        160390
#        175905
#        194413
#
# Disc length: 2746 seconds
#
# Revision: 1
# Processed by: cddbd v1.5.1PL0 Copyright (c) Steve Scherf et al.
# Submitted via: ExactAudioCopy v0.95b2
#
DISCID=930ab60b
DTITLE=Кроссроудз - Между ...
DYEAR=1994
DGENRE=Blues
TTITLE0=Blues Lives In Rossia
TTITLE1=Diamond Rain
TTITLE2=Сколько можно терпеть
TTITLE3=Fool Boy
TTITLE4=By My Hand
TTITLE5=Be What You Are
TTITLE6=Вио
TTITLE7=Can't Get Away
TTITLE8=We Are Still Around
TTITLE9=Miracle
TTITLE10=Вторник
EXTD=YEAR: 1994
EXTT0=
EXTT1=
EXTT2=
EXTT3=
EXTT4=
EXTT5=
EXTT6=
EXTT7=
EXTT8=
EXTT9=
EXTT10=
PLAYORDER=
